PathFileType	4	(X/Y/Z)	/Users/itak/Documents/Research/Walk-IL/dataset/trc/00138_00007.trc
DataRate	CameraRate	NumFrames	NumMarkers	Units	OrigDataRate	OrigDataStartFrame	OrigNumFrames
100.000000	100.000000	4	53	mm	100.000000	422	563
Frame#	Time	RPSI			LPSI			L3			STRN			T10			C7			CLAV			RBAK			LBAK			LSHO			LUPA			LAEL			LAOL			LWTS			LWPS			LFRA			LIFD			LHPS			LHTS			RSHO			RUPA			RAEL			RAOL			RWTS			RWPS			RFRA			RIFD			RHTS			RHPS			RBHD			LFHD			RFHD			LBHD			LHIP			RHIP			RASI			LASI			LKNE			LTHI			LANK			LTIP			LTOE			LMT1			LMT5			LHEE			RKNE			RTHI			RANK			RTIP			RTOE			RMT1			RMT5			RHEE			
		X1	Y1	Z1	X2	Y2	Z2	X3	Y3	Z3	X4	Y4	Z4	X5	Y5	Z5	X6	Y6	Z6	X7	Y7	Z7	X8	Y8	Z8	X9	Y9	Z9	X10	Y10	Z10	X11	Y11	Z11	X12	Y12	Z12	X13	Y13	Z13	X14	Y14	Z14	X15	Y15	Z15	X16	Y16	Z16	X17	Y17	Z17	X18	Y18	Z18	X19	Y19	Z19	X20	Y20	Z20	X21	Y21	Z21	X22	Y22	Z22	X23	Y23	Z23	X24	Y24	Z24	X25	Y25	Z25	X26	Y26	Z26	X27	Y27	Z27	X28	Y28	Z28	X29	Y29	Z29	X30	Y30	Z30	X31	Y31	Z31	X32	Y32	Z32	X33	Y33	Z33	X34	Y34	Z34	X35	Y35	Z35	X36	Y36	Z36	X37	Y37	Z37	X38	Y38	Z38	X39	Y39	Z39	X40	Y40	Z40	X41	Y41	Z41	X42	Y42	Z42	X43	Y43	Z43	X44	Y44	Z44	X45	Y45	Z45	X46	Y46	Z46	X47	Y47	Z47	X48	Y48	Z48	X49	Y49	Z49	X50	Y50	Z50	X51	Y51	Z51	X52	Y52	Z52	X53	Y53	Z53	

423	4.22	936.8240966796875	1106.517700195312	218.1591796875	803.3265991210938	1106.834228515625	200.6618499755859	864.0846557617188	1139.60595703125	215.4270935058594	889.9810791015625	1355.469970703125	17.38547515869141	846.5321044921875	1282.684448242188	266.3096008300781	826.190185546875	1576.352416992188	254.8847808837891	874.658447265625	1486.196533203125	65.23752593994141	906.309326171875	1388.001342773438	306.0790405273438	724.5787963867188	1554.241577148438	238.7110900878906	675.2919921875	1546.406860351562	137.8839569091797	606.68505859375	1411.42333984375	132.9725799560547	597.2703247070312	1194.127075195312	96.88409423828125	647.0211181640625	1176.826416015625	169.9907684326172	657.7530517578125	941.8211669921875	-9.602974891662598	624.5831298828125	912.7871704101562	67.56748962402344	597.7841796875	1079.372680664062	73.56784057617188	683.0715942382812	746.9607543945312	-28.52509498596191	630.6521606445312	837.654541015625	36.98158264160156	653.0593872070312	851.9052124023438	-27.03170204162598	1014.669311523438	1565.608642578125	234.0320739746094	1074.245239257812	1492.076782226562	260.0043640136719	1097.183349609375	1198.012329101562	261.3414611816406	1002.25146484375	1194.567016601562	237.1697998046875	1139.162841796875	967.5682373046875	104.6912155151367	1143.93701171875	944.6651000976562	184.6405944824219	1121.114135742188	1126.939575195312	239.1015014648438	1133.68310546875	777.1260986328125	58.80743408203125	1156.073120117188	863.2933349609375	69.9375	1160.243530273438	847.35302734375	142.5589599609375	918.05517578125	1748.407470703125	239.75048828125	766.6890869140625	1833.794189453125	103.7575378417969	896.1148071289062	1851.170776367188	95.86553955078125	785.9548950195312	1733.956420898438	256.7958984375	708.6324462890625	1022.6689453125	90.53672790527344	1073.588500976562	1025.12109375	98.65666198730469	1026.498413085938	1101.223999023438	18.43497657775879	761.4413452148438	1090.66796875	-8.817502021789551	723.2496948242188	512.6808471679688	66.00150299072266	700.4451904296875	665.555419921875	78.1739501953125	611.3163452148438	115.1716079711914	404.6539611816406	636.7875366210938	333.6688232421875	257.0691528320312	758.9137573242188	28.95773315429688	262.0250244140625	750.2415771484375	55.74546051025391	333.4647827148438	640.2596435546875	43.91762924194336	306.1231994628906	638.470703125	164.3475494384766	479.0172424316406	1067.16552734375	551.1854248046875	-29.3271541595459	1084.427490234375	824.4267578125	28.28620147705078	1083.234130859375	21.97537994384766	-10.36382293701172	1088.078125	414.8709411621094	-29.67276573181152	1011.684020996094	53.9471321105957	-233.1187286376953	977.1058959960938	40.62917709350586	-172.5913238525391	1095.842407226562	36.15565872192383	-145.5024261474609	1035.053955078125	24.7707576751709	49.40522384643555	
424	4.23	943.0574951171875	1107.623168945312	210.6635589599609	809.3375244140625	1107.11865234375	194.5892486572266	870.3433227539062	1140.590209960938	208.8470306396484	893.7188110351562	1356.540283203125	10.24120330810547	852.978759765625	1283.502319335938	259.8569946289062	831.6815185546875	1576.943359375	248.8959350585938	878.3605346679688	1486.977172851562	58.80545425415039	912.7489624023438	1388.832641601562	299.1093444824219	729.93798828125	1554.611572265625	233.9259643554688	679.69775390625	1546.804321289062	133.3691711425781	611.1260375976562	1411.79443359375	129.5800628662109	600.91064453125	1194.463134765625	94.91677856445312	651.4931030273438	1177.451171875	167.4656829833984	659.7243041992188	941.63818359375	-11.20636940002441	627.464111328125	912.967529296875	66.51930999755859	601.0399169921875	1079.620849609375	72.12092590332031	684.7921752929688	746.71044921875	-29.51117134094238	633.106689453125	837.7296752929688	36.18910598754883	654.8041381835938	851.6595458984375	-28.16862487792969	1019.93701171875	1566.703979492188	226.2109985351562	1079.905395507812	1493.313354492188	251.6480560302734	1103.608520507812	1199.34326171875	252.9680328369141	1008.4296875	1195.625610351562	229.8094177246094	1144.568237304688	969.4635620117188	95.28805541992188	1150.22900390625	946.2451171875	175.1692504882812	1127.502075195312	1128.33349609375	230.3568878173828	1139.4052734375	779.2092895507812	48.77931594848633	1161.529418945312	865.5065307617188	59.90890502929688	1166.460327148438	849.169189453125	132.5795288085938	922.6889038085938	1749.106201171875	233.7076721191406	770.6549682617188	1834.663452148438	98.58330535888672	900.0469360351562	1852.187622070312	90.1842041015625	790.68212890625	1734.4794921875	251.2644958496094	713.9805297851562	1023.060119628906	86.06624603271484	1078.740844726562	1026.580810546875	89.82538604736328	1030.701416015625	1102.59423828125	9.903457641601562	765.4019165039062	1091.307373046875	-14.19958782196045	726.5243530273438	513.1375122070312	56.14524841308594	704.419921875	666.185302734375	70.33148956298828	614.7518920898438	120.9326934814453	401.6803283691406	640.5468139648438	337.5275573730469	250.3236083984375	759.04931640625	28.76136207580566	261.6823425292969	751.3743286132812	57.09843063354492	331.1318359375	641.153564453125	45.73372650146484	305.2350463867188	642.7210083007812	172.1697692871094	473.9537658691406	1070.598876953125	550.7212524414062	-31.93594741821289	1088.915771484375	825.0851440429688	21.53802680969238	1083.305419921875	22.02569580078125	-10.5624303817749	1090.768920898438	414.3765563964844	-31.34748458862305	1011.192810058594	51.01846694946289	-234.3382873535156	977.1035766601562	39.27956008911133	-173.0155944824219	1095.927856445312	35.77227020263672	-145.9905548095703	1035.360229492188	24.8912181854248	49.29984283447266	
425	4.24	949.0607299804688	1108.670532226562	203.3208770751953	815.1243896484375	1107.322631835938	188.5777282714844	876.3834228515625	1141.493408203125	202.3710021972656	897.2275390625	1357.436767578125	3.323815584182739	859.2581787109375	1284.264282226562	253.4936218261719	837.1361083984375	1577.54052734375	242.9450988769531	881.8680419921875	1487.5810546875	52.54520416259766	919.131591796875	1389.653198242188	292.1873168945312	735.2763671875	1554.938598632812	229.0731811523438	684.0386352539062	1547.12158203125	128.9553375244141	615.5146484375	1412.072998046875	126.3206253051758	604.563720703125	1194.731811523438	93.03218078613281	655.95751953125	1177.9736328125	164.9965209960938	661.7708129882812	941.489990234375	-12.88110637664795	630.4009399414062	913.098876953125	65.35999298095703	604.3533935546875	1079.802124023438	70.69456481933594	686.464111328125	746.5208129882812	-30.79070091247559	635.5993041992188	837.8024291992188	35.2093391418457	656.58056640625	851.4794921875	-29.45975875854492	1025.141479492188	1567.763916015625	218.353759765625	1085.516845703125	1494.519653320312	243.2276916503906	1110.065063476562	1200.657470703125	244.5019989013672	1014.635925292969	1196.638549804688	222.4219360351562	1149.952270507812	971.3217163085938	85.84920501708984	1156.53759765625	947.80029296875	165.6814270019531	1133.91455078125	1129.716674804688	221.5251007080078	1145.097290039062	781.1967163085938	38.83004760742188	1166.942504882812	867.6341552734375	49.91870880126953	1172.699462890625	850.9674072265625	122.6129531860352	927.2823486328125	1749.713745117188	227.6585540771484	774.57861328125	1835.479125976562	93.43720245361328	903.9214477539062	1853.156127929688	84.53239440917969	795.3720703125	1734.897705078125	245.7355346679688	719.1142578125	1023.388671875	81.53151702880859	1083.664428710938	1027.947509765625	81.15904998779297	1034.743286132812	1103.87158203125	1.515267014503479	769.2520751953125	1091.891845703125	-19.49293518066406	729.9583740234375	513.589599609375	46.29363250732422	708.4751586914062	666.7776489257812	62.45110321044922	618.3131103515625	126.886116027832	398.4272155761719	644.3461303710938	341.3606567382812	243.4100036621094	759.2792358398438	28.50954246520996	261.2580871582031	752.5978393554688	58.50614166259766	328.6578369140625	642.1116333007812	47.93102645874023	304.1462097167969	647.191650390625	179.8897705078125	468.669189453125	1074.081787109375	550.2230834960938	-34.23826217651367	1093.2080078125	825.5779418945312	15.10264587402344	1083.382446289062	22.06476593017578	-10.72435665130615	1093.501098632812	413.8707580566406	-32.74521636962891	1010.778076171875	48.33147811889648	-235.4238433837891	977.1105346679688	38.11343002319336	-173.3918609619141	1096.028564453125	35.41558074951172	-146.4173431396484	1035.66552734375	25.0149974822998	49.20361328125	
426	4.25	954.8394165039062	1109.68408203125	196.1547088623047	820.6981201171875	1107.504150390625	182.6820678710938	882.2036743164062	1142.329711914062	196.0180969238281	900.460693359375	1358.140991210938	-3.2813401222229	865.370849609375	1284.988037109375	247.2367553710938	842.5453491210938	1578.168090820312	237.0492095947266	885.2133178710938	1488.0625	46.41827774047852	925.4476318359375	1390.476806640625	285.3224182128906	740.5975952148438	1555.263061523438	224.1969604492188	688.3104858398438	1547.39208984375	124.6598205566406	619.8427124023438	1412.29443359375	123.2078704833984	608.2422485351562	1194.96240234375	91.23245239257812	660.4472045898438	1178.427001953125	162.5769348144531	663.8880004882812	941.3954467773438	-14.62278079986572	633.4099731445312	913.2053833007812	64.10842895507812	607.7262573242188	1079.942993164062	69.29596710205078	688.0945434570312	746.3973388671875	-32.33076095581055	638.1395263671875	837.883544921875	34.06916809082031	658.377197265625	851.3703002929688	-30.88490295410156	1030.271728515625	1568.803955078125	210.4748077392578	1091.070190429688	1495.7119140625	234.7520599365234	1116.5478515625	1201.971435546875	235.9330749511719	1020.867370605469	1197.620727539062	214.9943084716797	1155.30419921875	973.1404418945312	76.38450622558594	1162.856201171875	949.3458862304688	156.1829681396484	1140.342163085938	1131.105712890625	212.5983276367188	1150.7158203125	783.076416015625	28.99973106384277	1172.287231445312	869.6514892578125	40.00167846679688	1178.938598632812	852.7537231445312	112.6741027832031	931.8302001953125	1750.255249023438	221.6091918945312	778.45947265625	1836.256225585938	88.31217193603516	907.736083984375	1854.080444335938	78.90330505371094	800.0174560546875	1735.245361328125	240.2203369140625	724.0225830078125	1023.657287597656	76.93746948242188	1088.375854492188	1029.23974609375	72.67852783203125	1038.617431640625	1105.052978515625	-6.680434226989746	772.9800415039062	1092.435668945312	-24.69029998779297	733.558837890625	514.04443359375	36.4451904296875	712.622314453125	667.3363647460938	54.55352020263672	621.9913940429688	133.0115509033203	394.8775634765625	648.2719116210938	345.14208984375	236.3485717773438	759.6005859375	28.18047332763672	260.7234497070312	753.939697265625	59.96829223632812	326.0552673339844	643.1622314453125	50.48235702514648	302.8615417480469	651.966064453125	187.473876953125	463.1697082519531	1077.576416015625	549.7090454101562	-36.29696273803711	1097.306884765625	825.929443359375	8.959286689758301	1083.480590820312	22.07845306396484	-10.85945892333984	1096.247680664062	413.3733215332031	-33.95112609863281	1010.427368164062	45.98065567016602	-236.3357238769531	977.1179809570312	37.17674255371094	-173.6992645263672	1096.148071289062	35.08869552612305	-146.7881011962891	1035.98876953125	25.14042472839355	49.11899566650391	
